<mxfile host="app.diagrams.net" modified="2022-05-10T13:16:31.837Z" agent="5.0 (Windows NT 10.0; Win64; x64) AppleWebKit/537.36 (KHTML, like Gecko) Chrome/100.0.4896.75 Safari/537.36" etag="xZKVa2Xwg4Xk-SPvtFZy" version="17.5.0" type="github">
  <diagram id="8ipL7VxOLA86nCOLDPks" name="第 1 页">
    <mxGraphModel dx="1422" dy="706" grid="1" gridSize="10" guides="1" tooltips="1" connect="1" arrows="1" fold="1" page="1" pageScale="1" pageWidth="827" pageHeight="1169" math="0" shadow="0">
      <root>
        <mxCell id="0" />
        <mxCell id="1" parent="0" />
        <mxCell id="_DCF1WLMJUMTrvTwD3Tw-2" style="edgeStyle=orthogonalEdgeStyle;rounded=0;orthogonalLoop=1;jettySize=auto;html=1;fontFamily=宋体;fontSize=16;" edge="1" parent="1" source="_DCF1WLMJUMTrvTwD3Tw-1" target="_DCF1WLMJUMTrvTwD3Tw-3">
          <mxGeometry relative="1" as="geometry">
            <mxPoint x="410" y="170" as="targetPoint" />
          </mxGeometry>
        </mxCell>
        <mxCell id="_DCF1WLMJUMTrvTwD3Tw-1" value="开始" style="strokeWidth=1;html=1;shape=mxgraph.flowchart.terminator;whiteSpace=wrap;fontSize=16;fontFamily=宋体;" vertex="1" parent="1">
          <mxGeometry x="360" y="50" width="100" height="50" as="geometry" />
        </mxCell>
        <mxCell id="_DCF1WLMJUMTrvTwD3Tw-5" style="edgeStyle=orthogonalEdgeStyle;rounded=0;orthogonalLoop=1;jettySize=auto;html=1;fontFamily=宋体;fontSize=16;" edge="1" parent="1" source="_DCF1WLMJUMTrvTwD3Tw-3" target="_DCF1WLMJUMTrvTwD3Tw-4">
          <mxGeometry relative="1" as="geometry" />
        </mxCell>
        <mxCell id="_DCF1WLMJUMTrvTwD3Tw-3" value="填写注册信息" style="rounded=0;whiteSpace=wrap;html=1;fontFamily=宋体;fontSize=16;strokeWidth=1;" vertex="1" parent="1">
          <mxGeometry x="335" y="170" width="150" height="60" as="geometry" />
        </mxCell>
        <mxCell id="_DCF1WLMJUMTrvTwD3Tw-6" value="Y" style="edgeStyle=orthogonalEdgeStyle;rounded=0;orthogonalLoop=1;jettySize=auto;html=1;fontFamily=宋体;fontSize=16;" edge="1" parent="1" source="_DCF1WLMJUMTrvTwD3Tw-4">
          <mxGeometry x="-0.7917" relative="1" as="geometry">
            <mxPoint x="410" y="120" as="targetPoint" />
            <Array as="points">
              <mxPoint x="580" y="300" />
              <mxPoint x="580" y="120" />
            </Array>
            <mxPoint as="offset" />
          </mxGeometry>
        </mxCell>
        <mxCell id="_DCF1WLMJUMTrvTwD3Tw-9" value="N" style="edgeStyle=orthogonalEdgeStyle;rounded=0;orthogonalLoop=1;jettySize=auto;html=1;fontFamily=宋体;fontSize=16;" edge="1" parent="1" source="_DCF1WLMJUMTrvTwD3Tw-4" target="_DCF1WLMJUMTrvTwD3Tw-8">
          <mxGeometry relative="1" as="geometry" />
        </mxCell>
        <mxCell id="_DCF1WLMJUMTrvTwD3Tw-4" value="账号是否已存在" style="rhombus;whiteSpace=wrap;html=1;fontFamily=宋体;fontSize=16;strokeWidth=1;" vertex="1" parent="1">
          <mxGeometry x="330" y="270" width="160" height="60" as="geometry" />
        </mxCell>
        <mxCell id="_DCF1WLMJUMTrvTwD3Tw-10" value="N" style="edgeStyle=orthogonalEdgeStyle;rounded=0;orthogonalLoop=1;jettySize=auto;html=1;fontFamily=宋体;fontSize=16;" edge="1" parent="1" source="_DCF1WLMJUMTrvTwD3Tw-8">
          <mxGeometry x="-0.945" relative="1" as="geometry">
            <mxPoint x="410" y="120" as="targetPoint" />
            <Array as="points">
              <mxPoint x="260" y="420" />
              <mxPoint x="260" y="120" />
            </Array>
            <mxPoint as="offset" />
          </mxGeometry>
        </mxCell>
        <mxCell id="_DCF1WLMJUMTrvTwD3Tw-13" value="" style="edgeStyle=orthogonalEdgeStyle;rounded=0;orthogonalLoop=1;jettySize=auto;html=1;fontFamily=宋体;fontSize=16;" edge="1" parent="1" source="_DCF1WLMJUMTrvTwD3Tw-8" target="_DCF1WLMJUMTrvTwD3Tw-12">
          <mxGeometry relative="1" as="geometry" />
        </mxCell>
        <mxCell id="_DCF1WLMJUMTrvTwD3Tw-8" value="验证注册信息是否合法" style="rhombus;whiteSpace=wrap;html=1;fontFamily=宋体;fontSize=16;strokeWidth=1;" vertex="1" parent="1">
          <mxGeometry x="295" y="390" width="230" height="60" as="geometry" />
        </mxCell>
        <mxCell id="_DCF1WLMJUMTrvTwD3Tw-14" style="edgeStyle=orthogonalEdgeStyle;rounded=0;orthogonalLoop=1;jettySize=auto;html=1;fontFamily=宋体;fontSize=16;entryX=0.5;entryY=0;entryDx=0;entryDy=0;entryPerimeter=0;" edge="1" parent="1" source="_DCF1WLMJUMTrvTwD3Tw-12" target="_DCF1WLMJUMTrvTwD3Tw-15">
          <mxGeometry relative="1" as="geometry">
            <mxPoint x="410" y="650" as="targetPoint" />
          </mxGeometry>
        </mxCell>
        <mxCell id="_DCF1WLMJUMTrvTwD3Tw-12" value="将注册信息保存到数据库，提示注册成功" style="whiteSpace=wrap;html=1;fontSize=16;fontFamily=宋体;strokeWidth=1;" vertex="1" parent="1">
          <mxGeometry x="315" y="485" width="190" height="60" as="geometry" />
        </mxCell>
        <mxCell id="_DCF1WLMJUMTrvTwD3Tw-15" value="结束" style="strokeWidth=1;html=1;shape=mxgraph.flowchart.terminator;whiteSpace=wrap;fontSize=16;fontFamily=宋体;" vertex="1" parent="1">
          <mxGeometry x="360" y="580" width="100" height="50" as="geometry" />
        </mxCell>
      </root>
    </mxGraphModel>
  </diagram>
</mxfile>
